<svg xmlns="http://www.w3.org/2000/svg" xml:space="preserve" width="259.23679" height="257.83459" viewBox="0 0 259.23679 257.83459"><path d="M-141.715 1050.844a17.015 17.015 0 0 1-17.015 17.014 17.015 17.015 0 0 1-17.014-17.014 17.015 17.015 0 0 1 17.014-17.015 17.015 17.015 0 0 1 17.015 17.015zm43.08-23.877a17.015 17.015 0 0 1-17.015 17.015 17.015 17.015 0 0 1-17.015-17.015 17.015 17.015 0 0 1 17.015-17.014 17.015 17.015 0 0 1 17.014 17.014zm-87.323 0a17.015 17.015 0 0 1-17.014 17.015 17.015 17.015 0 0 1-17.015-17.014 17.015 17.015 0 0 1 17.015-17.015 17.015 17.015 0 0 1 17.014 17.015zm47.698-31.634a21.268 21.268 0 0 1-21.268 21.268 21.268 21.268 0 0 1-21.269-21.268 21.268 21.268 0 0 1 21.269-21.268 21.268 21.268 0 0 1 21.268 21.268zm-57.107 135.101c-4.37-3.198-8.788-6.121-9.817-6.495-1.028-.375-4.383-1.48-7.456-2.458l-5.586-1.777-4.198-5.843c-2.31-3.214-6.546-9.104-9.415-13.09-2.868-3.985-14.292-19.867-25.386-35.294l-20.17-28.049-6.17-3.465-6.17-3.465 2.192-1.91c1.205-1.052 7.726-6.75 14.491-12.664l12.3-10.752 5.696-11.978c3.133-6.588 5.696-12.24 5.696-12.562 0-.321-8.836-9.31-19.634-19.975l-19.634-19.39V931.608l16.01-15.97 16.012-15.97 19.78-9.76 19.78-9.76 6.522-.854 6.522-.854-2.019 2.126c-2.137 2.251-9.07 9.68-24.552 26.309l-9.458 10.158.127 9.19.127 9.19 4.675 2.675c2.571 1.47 10.94 6.305 18.598 10.744 12.573 7.288 14.001 8.005 14.726 7.386.874-.747 22.222-19.752 24.877-22.147.9-.812 4.897-4.381 8.882-7.932 3.985-3.551 7.479-6.767 7.764-7.148.448-.6.573-.602.935-.017.229.37 3.572 3.489 7.429 6.93 3.857 3.442 8.695 7.771 10.752 9.621 12.798 11.512 23.828 21.263 24.051 21.263.143 0 8.569-4.812 18.724-10.693l18.464-10.693.127-9.205.127-9.204-2.727-2.892c-1.5-1.59-8.585-9.203-15.745-16.916-7.16-7.713-14.04-15.086-15.289-16.384l-2.27-2.36 6.55.857 6.551.857 19.753 9.763 19.753 9.763 16.01 15.897 16.012 15.897v9.754l-19.634 19.472c-10.8 10.71-19.634 19.7-19.634 19.978 0 .279 2.505 5.798 5.568 12.266l5.567 11.76 14.417 12.738c7.93 7.005 14.348 12.896 14.265 13.089-.084.193-2.856 1.93-6.16 3.858l-6.005 3.506-29.389 40.904-29.389 40.904-2.318.8c-1.275.441-4.474 1.457-7.108 2.257-4.452 1.353-5.301 1.823-12.049 6.679-3.992 2.873-7.721 5.539-8.287 5.924l-1.028.702.99-1.636c.543-.9 2.404-4.056 4.135-7.013a8657.024 8657.024 0 0 1 13.33-22.672c11.703-19.853 15.01-25.567 14.869-25.696-.087-.08-4.155-.29-9.04-.466l-8.882-.32-8.135 8.174-8.135 8.174-2.56-4.049a1490.728 1490.728 0 0 1-3.942-6.27c-.761-1.22-1.523-2.218-1.694-2.216-.31.01-17.235 25.495-18.02 27.14-.343.717-1.214-.363-5.04-6.244-11.245-17.282-13.534-20.666-13.976-20.666-.26 0-2.217 2.771-4.352 6.159l-3.88 6.159-8.141-8.18-8.141-8.181-8.882.32c-4.885.176-8.949.381-9.03.456-.081.074 5.156 9.149 11.638 20.166 6.483 11.017 13.88 23.608 16.437 27.979 2.558 4.37 4.867 8.21 5.131 8.531.265.321.403.573.307.56-.096-.014-3.75-2.643-8.121-5.84z" style="opacity:1;fill:#916abb;fill-opacity:1;fill-rule:evenodd;stroke:none;stroke-width:4.77507;stroke-dasharray:none;stroke-opacity:1" transform="translate(289.735 -878.441)"/></svg>