<svg xmlns="http://www.w3.org/2000/svg" xml:space="preserve" width="50" height="50" viewBox="0 0 19.444444 25"><path fill="#c9bcdc" d="M14.327 13.22c.003 2.801-2.865 3.205-2.865 3.205l.807-1.861zm-3.243 9.892-.824-1.207-.538.734-.54-.734-.824 1.207S7.2 21.83 7.2 20.43s.29-2.562.29-2.562l.79 2.116.625-.414s.179.507.817 1.246c.637-.739.816-1.244.816-1.244l.626.414.791-2.118s.29 1.162.29 2.562-1.16 2.683-1.16 2.683m-5.968-9.892 2.059 1.343.806 1.861s-2.865-.404-2.865-3.204M13.752-.001l-.761.735.276 5.456s1.678 1.093 1.678 2.44c0 .986-.75 1.69-1.545 1.69-1.144 0-2.02-1.071-1.587-2.383l-2.09-3.114L7.63 7.937c.433 1.312-.442 2.383-1.586 2.383-.795 0-1.545-.702-1.545-1.69 0-1.347 1.677-2.44 1.677-2.44L6.453.734 5.694 0c-.002 4.927-7.282 9.53-7.282 14.636 0 3.236 3.651 5.286 3.651 8.534 0 0 .655-.82.655-2.818s-.832-2.15-.832-3.389 1.255-2.432 1.255-2.432c0 2.136 2.72 3.924 2.72 4.94C5.86 20.877 7.273 25 9.721 25s3.862-4.124 3.862-5.53c0-1.015 2.72-2.803 2.72-4.939 0 0 1.253 1.193 1.253 2.432s-.83 1.39-.83 3.389c0 1.997.653 2.818.653 2.818 0-3.248 3.653-5.298 3.653-8.534 0-5.107-7.28-9.707-7.28-14.636" style="display:inline;opacity:1;stroke-width:1.5194"/></svg>