<svg xmlns="http://www.w3.org/2000/svg" width="40.419846" height="42.425468" viewBox="0 0 40.419846 42.425468"><g style="opacity:1;fill:#7a7dd9;fill-opacity:1;stroke:none;stroke-width:0;stroke-dasharray:none;stroke-opacity:1"><path d="m206.067 131.583 9.09 4.864 3.07 4.865-.079-6.938-7.887-5.843-.141-9.628 2.565-3.594 5.503-4.062v-12.36c-3.448 4.123-3.828 10.048-3.828 10.048l-7.735 5.263-2.917 6.187-1.764.91-.136 2.532 1.866 1.456zM237.97 131.583l-9.092 4.864-3.07 4.865.08-6.938 7.887-5.843.141-9.628-2.565-3.594-5.503-4.062v-12.36c3.448 4.123 3.828 10.048 3.828 10.048l7.735 5.263 2.917 6.187 1.763.91.137 2.532-1.866 1.456z" style="opacity:1;fill:#7a7dd9;fill-opacity:1;fill-rule:evenodd;stroke:none;stroke-width:0;stroke-dasharray:none;stroke-opacity:1" transform="translate(-201.808 -98.886)"/><path d="M221.777 114.357a7.815 7.815 0 1 0 0 15.631 7.815 7.815 0 0 0 0-15.63zm.094 13.518c-1.777-2.568-1.375-4.971 0-6.914 1.693 2.504 1.485 4.836 0 6.914z" style="opacity:1;fill:#7a7dd9;fill-opacity:1;fill-rule:evenodd;stroke:none;stroke-width:0;stroke-dasharray:none;stroke-opacity:1" transform="translate(-201.808 -98.886)"/></g></svg>