<svg xmlns="http://www.w3.org/2000/svg" xml:space="preserve" width="735.64258" height="736.95642" viewBox="0 0 735.64258 736.95642"><path d="M-569.246 1435.04c-1.528-1.218-5.168-4.514-8.09-7.325-2.92-2.81-8.117-6.975-11.547-9.253s-8.344-6.138-10.92-8.578-6.408-5.7-8.513-7.247c-2.106-1.546-5.528-4.271-7.606-6.056-5.633-4.84-10.188-6.505-32.046-11.72-3.025-.721-6.85-2.034-8.5-2.917s-4.137-1.609-5.528-1.612c-1.39 0-3.42-.632-4.513-1.397s-4.23-2.066-6.972-2.89-9.377-3.574-14.743-6.11c-5.366-2.535-10.359-4.61-11.095-4.61s-2.154-.9-3.149-2-2.56-2-3.477-2c-3.368 0-10.835-3.17-13.07-5.55-1.266-1.347-3.063-2.45-3.992-2.45-.93 0-2.764-.825-4.076-1.833-2.272-1.748-4.268-2.865-13.385-7.495-2.2-1.117-5.689-3.525-7.753-5.351s-4.4-3.32-5.19-3.32c-.789 0-3.515-1.8-6.057-4s-5.308-4-6.147-4-4.3-2.606-7.69-5.79-8.162-7.122-10.605-8.75c-6.458-4.304-26.815-24.242-32.058-31.398-2.475-3.379-6.413-8.57-8.75-11.535-2.338-2.966-4.25-5.768-4.25-6.228s-1.215-2.623-2.7-4.807c-4.298-6.326-9.144-16.141-9.864-19.98-.364-1.944-1.512-5.199-2.55-7.234s-1.886-5.126-1.886-6.867c0-1.742-.663-3.717-1.474-4.39s-1.755-2.864-2.1-4.872-1.482-5.479-2.527-7.715c-1.044-2.236-1.899-5.022-1.899-6.19 0-1.17-.401-2.374-.892-2.677-.49-.303-2.352-3.592-4.137-7.31-1.784-3.716-3.57-6.982-3.968-7.257s-1.52-2.075-2.494-4c-5.038-9.96-14.12-21.639-27.489-35.347-7.964-8.166-16.064-15.674-18-16.685s-6.294-4.284-9.685-7.273c-3.39-2.99-7.328-5.728-8.75-6.084-1.422-.357-2.585-1.117-2.585-1.689 0-1.445 6.937-7.8 17-15.574 4.675-3.612 9.175-7.176 10-7.92 2.908-2.62 12.94-10.956 15.951-13.254 3.672-2.802 3.84-5.08.658-8.862-4.366-5.189-11.525-18.034-16.058-28.812a488 488 0 0 0-3.266-7.5c-1.103-2.475-2.513-6.975-3.132-10s-1.832-7.975-2.694-11c-2.814-9.88-2.43-50.462.545-57.5 1.039-2.457 1.99-6.718 2.679-12 .287-2.2.926-4.428 1.42-4.95s.897-1.788.897-2.812c0-1.738 3.189-9.573 6.54-16.07.803-1.556 1.466-3.581 1.473-4.5.007-.917 1.357-4.319 3-7.559s2.987-6.418 2.987-7.063 1.402-2.494 3.115-4.109 3.97-4.903 5.015-7.305 2.992-5.226 4.326-6.276 2.739-2.909 3.122-4.132c.957-3.06 15.613-18.992 22.922-24.917 11.242-9.115 12.825-10.307 16.412-12.367 1.973-1.133 6.288-3.878 9.588-6.098 7.04-4.738 13.612-7.889 18.5-8.87 1.925-.387 4.625-1.302 6-2.034 5.304-2.824 17.202-3.77 55.5-4.413 38.212-.642 43.108-1.074 47.09-4.16.6-.465 3.75-2.252 7-3.973 3.25-1.72 7.884-4.762 10.297-6.76s7.138-5.702 10.5-8.231 7.289-5.905 8.726-7.5c1.437-1.596 4.988-4.701 7.89-6.901 6.569-4.978 10.685-8.459 18.428-15.585 3.338-3.072 9.894-8.648 14.569-12.391s11.2-9.37 14.5-12.505 8.25-7.436 11-9.558c2.75-2.123 5.9-4.658 7-5.634 9.338-8.29 15.712-13.642 19.652-16.5 2.559-1.855 4.907-4.038 5.219-4.85.311-.813 1.264-1.477 2.117-1.477 2.232 0 10.445 6.268 20.387 15.56 8.05 7.524 12.206 11.044 17.98 15.232 1.294.94 6.158 5.308 10.808 9.708s9.094 8.228 9.877 8.507c1.793.638 7.604 5.484 17.558 14.642 4.273 3.931 9.487 8.406 11.586 9.943 4.338 3.177 4.456 3.28 17.245 14.866 5.186 4.698 10.034 8.542 10.773 8.542s3.245 1.741 5.57 3.87 5.353 4.202 6.728 4.608c1.375.407 4.075 2.241 6 4.076 1.93 1.841 5.518 3.889 8 4.566 2.921.798 17.832 1.491 42.5 1.976 39.23.772 51.18 1.566 53.597 3.564.771.639 3.203 1.49 5.403 1.89 2.2.402 6.025 1.748 8.5 2.991 21.785 10.949 23.224 11.846 32.084 20.001.871.802 2.123 1.458 2.782 1.458 2.482 0 24.408 23.6 30.425 32.75 3.346 5.087 6.414 9.25 6.817 9.25s1.023 1.319 1.377 2.93c.354 1.613 1.26 3.444 2.015 4.07.754.626 1.654 2.426 2 4s1.246 3.374 2 4 1.654 2.426 2 4 1.275 3.398 2.064 4.053c.79.656 1.44 1.7 1.445 2.32s1.116 3.377 2.469 6.127 2.474 5.912 2.49 7.027c.018 1.116.675 2.947 1.462 4.07.786 1.122 1.744 4.935 2.129 8.472.384 3.537 1.26 7.556 1.947 8.93 2.401 4.81 3.594 12.501 4.178 26.943.777 19.228-.637 30.145-6.244 48.192-.792 2.549-1.44 5.186-1.44 5.86 0 3.188-16.042 33.182-20.094 37.57-2.967 3.214-2.337 5.759 2.344 9.475 2.337 1.856 6.648 5.644 9.58 8.417 2.931 2.774 6.288 5.402 7.459 5.839s2.822 1.42 3.67 2.186c.847.764 4.786 4.344 8.751 7.954 3.966 3.61 7.915 6.565 8.775 6.565s2.036 1.237 2.612 2.75c.852 2.237.74 2.936-.603 3.75-.907.55-3.752 2.438-6.322 4.196s-6.317 4.108-8.327 5.222c-2.011 1.114-4.55 3.164-5.644 4.554s-2.402 2.528-2.906 2.528c-1.873 0-28.514 27.59-29.93 30.996-.802 1.927-3.489 5.572-5.971 8.1-3.084 3.139-6.713 8.986-11.454 18.453-3.817 7.622-6.94 14.47-6.94 15.219s-.857 3.47-1.904 6.046c-2.247 5.53-4.634 12.653-6.685 19.947-.814 2.894-2.589 7.348-3.945 9.9-1.356 2.55-2.466 5.41-2.466 6.353 0 .944-.9 2.86-2 4.259-1.1 1.398-2 3.405-2 4.46s-1.102 2.953-2.448 4.218c-1.347 1.265-2.73 3.581-3.074 5.147s-1.963 3.973-3.597 5.349c-1.635 1.375-3.619 3.747-4.41 5.27s-2.906 4.572-4.703 6.776c-4.217 5.171-23.38 24.26-27.614 27.507-1.793 1.375-5.108 4.187-7.366 6.25s-4.457 3.75-4.886 3.75-2.811 1.687-5.293 3.75c-7.618 6.33-13.839 10.748-20.109 14.282-3.3 1.86-6.45 3.756-7 4.214-2.164 1.799-12.19 7.782-15.5 9.25-1.925.854-4.175 1.97-5 2.482s-4.425 2.332-8 4.044c-3.575 1.713-7.175 3.507-8 3.988-3.626 2.115-13.96 6.99-14.815 6.99-.517 0-1.454.619-2.081 1.375-.628.757-3.005 1.673-5.282 2.037-2.276.364-5.305 1.29-6.73 2.057-5.584 3.004-11.758 5.432-15.242 5.995-2.007.324-4.157 1.2-4.778 1.949-.62.748-4.126 1.681-7.79 2.073-3.664.393-8.258 1.569-10.207 2.614s-4.525 1.9-5.721 1.9c-4.648 0-14.188 4.677-21.854 10.714-10.98 8.648-24.05 19.226-27.846 22.539-14.765 12.886-18.412 15.728-20.154 15.703-1.1-.015-3.25-1.024-4.778-2.242zm87.574-146.686c2.98-1.682 9.157-7.078 14.234-12.434 4.934-5.205 18.757-19.466 30.72-31.691s21.75-22.562 21.75-22.97 7.338-8.132 16.307-17.164c8.968-9.031 16.907-17.873 17.642-19.647 1.064-2.568 1.095-4.031.154-7.174-.651-2.171-1.652-3.948-2.225-3.948s-2.918-1.801-5.21-4.003-6.714-5.689-9.826-7.75-8.11-5.885-11.108-8.497c-2.997-2.613-5.974-4.75-6.614-4.75s-4.812-3.41-9.27-7.58c-4.457-4.168-9.284-8.079-10.727-8.69s-7.573-5.816-13.623-11.567l-17.546-16.673c-3.6-3.42-7.426-7.472-8.5-9.004-10.362-14.767-10.307-15.39 2.434-27.549 15.244-14.55 38.68-34.937 40.16-34.937 1.3 0 6.952-10.84 6.952-13.335 0-3.298-4.486-9.153-17.72-23.127-13.13-13.866-17.038-18.242-23.28-26.072-2.475-3.104-8.129-9.316-12.564-13.805s-10.951-11.536-14.48-15.661-8.9-10.243-11.936-13.595-9.12-10.087-13.52-14.964-9.827-10.685-12.06-12.905-4.484-4.763-5-5.651c-1.288-2.213-14.048-16.502-18.89-21.153-7.681-7.378-12.874-6.268-23.354 4.994-3.979 4.275-8.801 9.39-10.715 11.364-1.915 1.975-3.481 4-3.481 4.5s-6.413 7.69-14.25 15.979c-7.838 8.288-16.05 17.254-18.25 19.926-7.83 9.51-17.115 19.966-25 28.156-4.4 4.57-9.657 10.231-11.682 12.58-8.671 10.054-21.877 24.532-25.329 27.769-4.37 4.098-12.489 14.875-12.489 16.577 0 .648-.675 1.738-1.5 2.423-.85.705-1.5 2.885-1.5 5.023 0 3.175.746 4.515 4.665 8.378 2.565 2.53 5.068 4.599 5.562 4.599.493 0 5.332 4.244 10.753 9.432s11.131 10.11 12.688 10.939 7.444 6.25 13.082 12.046c13.95 14.342 13.916 15.46-.957 31.704-10.672 11.655-28.523 28.024-41.853 38.379a308 308 0 0 0-10.078 8.25c-2.71 2.337-5.285 4.25-5.72 4.25s-3.525 2.362-6.868 5.25c-3.342 2.887-7.96 6.375-10.264 7.75s-6.672 4.872-9.709 7.77c-5.636 5.38-7.908 10.404-6.664 14.73.316 1.1 9.113 10.775 19.548 21.5 22.591 23.218 56.73 58.512 70.266 72.645 9.507 9.926 9.836 10.16 15.189 10.83 4.309.537 6.043.318 8.165-1.035 1.482-.945 15.722-14.981 31.643-31.192s30.64-30.541 32.709-31.847c3.067-1.936 4.58-2.262 8.202-1.765 4.225.579 5.554 1.739 27.291 23.825 12.567 12.77 26.036 26.552 29.93 30.628 7.785 8.15 13.935 12.91 16.673 12.91.978 0 4.147-1.336 7.043-2.97z" style="fill:#cb9cf4;fill-opacity:1;stroke:#362c4b;stroke-opacity:1" transform="translate(932.468 -700.826)"/></svg>